PathFileType	4	(X/Y/Z)	C:\Users\Basilio\Documents\Thesis Gigler\squatting_fais\c3dfiles\073\SLS_front_pre4\markers_experimental.trc
DataRate	CameraRate	NumFrames	NumMarkers	Units	OrigDataRate	OrigDataStartFrame	OrigNumFrames
200.000000	200.000000	4	61	mm	200.000000	332	1329
Frame#	Time	FHD			LBHD			RBHD			C7			T10			CLAV			LSHO			LUUPA			LMUPA			LDUPA			LLEP			LMEP			LRAD			LUL			LRFIN			RSHO			RUPA1			RMUPA			RDUPA			RLEP			RMEP			RRAD			RUL			RUFIN			LASI			RASI			USACR			LSACR			RSACR			LTHI1			LTHI2			LTHI3			LTHI4			LLFC			LMFC			LTIB1			LTIB2			LTIB3			LTIB4			LLMAL			LMMAL			LHEE			LMT1			LMT2			LMT5			RTHI			RTHI2			RTHI3			RTHI4			RLFC			RMFC			RTIB1			RTIB2			RTIB3			RTIB4			RLMAL			RMMAL			RHEE			RMT1			RMT2			RMT5			
		X1	Y1	Z1	X2	Y2	Z2	X3	Y3	Z3	X4	Y4	Z4	X5	Y5	Z5	X6	Y6	Z6	X7	Y7	Z7	X8	Y8	Z8	X9	Y9	Z9	X10	Y10	Z10	X11	Y11	Z11	X12	Y12	Z12	X13	Y13	Z13	X14	Y14	Z14	X15	Y15	Z15	X16	Y16	Z16	X17	Y17	Z17	X18	Y18	Z18	X19	Y19	Z19	X20	Y20	Z20	X21	Y21	Z21	X22	Y22	Z22	X23	Y23	Z23	X24	Y24	Z24	X25	Y25	Z25	X26	Y26	Z26	X27	Y27	Z27	X28	Y28	Z28	X29	Y29	Z29	X30	Y30	Z30	X31	Y31	Z31	X32	Y32	Z32	X33	Y33	Z33	X34	Y34	Z34	X35	Y35	Z35	X36	Y36	Z36	X37	Y37	Z37	X38	Y38	Z38	X39	Y39	Z39	X40	Y40	Z40	X41	Y41	Z41	X42	Y42	Z42	X43	Y43	Z43	X44	Y44	Z44	X45	Y45	Z45	X46	Y46	Z46	X47	Y47	Z47	X48	Y48	Z48	X49	Y49	Z49	X50	Y50	Z50	X51	Y51	Z51	X52	Y52	Z52	X53	Y53	Z53	X54	Y54	Z54	X55	Y55	Z55	X56	Y56	Z56	X57	Y57	Z57	X58	Y58	Z58	X59	Y59	Z59	X60	Y60	Z60	X61	Y61	Z61	

333	1.66	-238.6937255859376	1683.480712890625	-802.7185668945315	-373.4196777343751	1656.989868164063	-828.4840087890627	-398.3620910644532	1641.278442382813	-695.0129394531251	-431.2913818359376	1535.7578125	-759.7610473632814	-480.3466796875001	1199.254272460938	-749.3563232421876	-309.0462646484376	1450.216796875	-754.7006225585939	-335.3517761230469	1492.22314453125	-903.7334594726565	-246.5711059570313	1415.341918945313	-990.227966308594	-207.8306427001954	1440.802978515625	-970.1837158203127	-181.7375183105469	1392.198974609375	-996.6044921875002	-76.18808746337892	1376.13232421875	-997.1699829101565	-75.7119598388672	1326.336791992188	-947.4053344726565	181.1212310791016	1433.8662109375	-892.0579833984377	184.0457916259766	1424.814697265625	-965.2354125976565	260.7353820800782	1453.159423828125	-887.1729736328127	-327.9827575683594	1493.610473632813	-610.5621337890626	-232.9804687500001	1398.945190429688	-509.7707519531251	-194.6296691894532	1423.646118164063	-524.7473754882814	-168.7434539794922	1375.1611328125	-501.2499084472657	-75.97834777832033	1363.50634765625	-499.7096557617189	-75.32006835937501	1308.951782226563	-562.4694824218751	177.4000396728516	1409.572998046875	-608.0073242187501	185.554183959961	1414.724609375	-534.1375122070314	265.5074462890626	1436.499389648438	-612.4622192382814	-311.4790954589844	1054.296630859375	-881.2847900390627	-306.0656127929688	1028.958374023438	-627.9256591796876	-495.116668701172	1088.765014648438	-746.7783813476564	-505.846160888672	1061.237060546875	-777.212341308594	-507.0679626464845	1054.9453125	-721.2680664062501	-230.8835754394532	771.112243652344	-941.6544189453127	-168.3361053466797	718.7508544921876	-919.572204589844	-138.3540649414063	738.9397583007814	-884.9545898437502	-169.6952667236328	659.6215820312501	-914.3855590820315	-143.9675903320313	604.6561889648439	-914.7337646484377	-153.5363464355469	592.1686401367189	-776.4434814453127	-7.104483127593996	453.6532287597657	-862.7211914062502	-35.33611679077149	390.6233520507814	-917.424987792969	2.631676673889161	404.6926269531251	-894.9034423828127	41.48933410644532	336.7069702148438	-861.762145996094	46.86874771118165	203.1641235351563	-888.0496215820315	42.1343002319336	228.5866088867188	-804.0263671875002	4.883807659149171	150.7129516601563	-846.9865722656252	208.0267028808594	235.7694702148438	-797.695495605469	212.0993041992188	236.4577178955079	-836.6398925781252	191.5099334716797	200.9978637695313	-890.9768066406252	-374.4178161621094	784.2167968750002	-585.7836303710939	-332.1610717773438	733.3645019531251	-586.3381347656251	-298.8456115722657	739.2410888671876	-586.7233276367189	-345.9567565917969	656.3043212890626	-615.5908813476564	-309.4622497558594	512.0389404296876	-639.1055908203126	-297.9627990722657	513.3394165039064	-769.1177978515627	-275.1886596679688	356.4091491699219	-741.2709350585939	-304.6913757324219	270.7872009277344	-682.7061767578126	-279.4090881347657	271.0118713378907	-724.3198242187501	-302.3451538085938	231.4480743408204	-760.7315063476564	-362.4056701660157	101.7203598022461	-718.7812500000001	-354.8205261230469	130.3231048583985	-803.417175292969	-432.9565429687501	83.85052490234376	-776.1812133789065	-208.9005889892579	55.02218246459962	-787.8387451171877	-209.1049957275391	52.0993995666504	-746.4918212890626	-253.2384796142579	34.50021743774415	-699.3018188476564	
334	1.665	-238.5865631103516	1683.209838867188	-802.4856567382815	-373.1223449707032	1656.769409179688	-828.2064208984377	-398.0791320800782	1640.977416992188	-694.7377929687501	-431.0675659179689	1535.560791015625	-759.4576416015626	-480.5143127441407	1199.128173828125	-749.2501831054689	-308.8511657714844	1449.80517578125	-754.5951538085939	-335.2187500000001	1492.081176757813	-903.5020751953127	-246.3820190429688	1415.243530273438	-990.0808715820315	-207.7539062500001	1440.723510742188	-970.0404052734377	-181.6002655029297	1392.1337890625	-996.4635009765627	-76.06948089599611	1376.040405273438	-997.0518188476565	-75.66631317138673	1326.186767578125	-947.3038330078127	181.1537475585938	1433.698120117188	-891.9587402343752	184.103012084961	1424.703125	-965.174499511719	260.8363342285157	1452.923217773438	-887.0564575195315	-327.7143249511719	1493.254272460938	-610.3984985351564	-232.6977233886719	1398.604858398438	-509.599578857422	-194.4218902587891	1423.338134765625	-524.6342163085939	-168.5207977294922	1374.72509765625	-500.9876708984376	-75.79450988769533	1363.058227539063	-499.5792846679689	-75.09864807128908	1308.481811523438	-562.4219970703126	nan	nan	nan	185.8098907470703	1414.37841796875	-534.0684814453126	265.7454528808594	1436.080444335938	-612.5630493164064	-311.9760131835938	1054.149169921875	-881.4306640625002	-306.3156433105469	1028.715698242188	-628.0307006835939	-495.4313049316407	1088.447387695313	-746.7381591796876	-506.1473693847657	1060.970092773438	-777.1373291015627	-507.3365783691407	1054.664306640625	-721.2020874023439	-230.7284088134766	771.2363281250002	-941.8146972656252	-168.1192474365235	719.0646362304689	-919.7017822265627	-138.0660858154297	739.2994995117189	-885.1409912109377	-169.3016662597657	659.8586425781251	-914.4360351562502	-143.3568267822266	605.0717163085939	-914.8726806640627	-152.758285522461	592.6008911132814	-776.5792236328127	-6.248006820678713	454.2568969726564	-863.0756835937502	-34.57106018066407	391.0996093750001	-917.9678955078127	3.275708913803101	405.2133178710939	-895.0952758789065	42.3954086303711	337.3123474121094	-862.2957763671877	47.9142189025879	203.8032379150391	-888.4077148437502	43.23911666870118	229.1012268066407	-804.3576660156252	6.159016609191896	151.2583160400391	-847.4506835937502	209.3162536621094	236.5616760253907	-798.336364746094	213.1979675292969	237.3320922851563	-837.0652465820315	192.6690826416016	201.9281616210938	-891.469421386719	-374.1359558105469	783.9555664062502	-585.7940673828126	-331.6855773925782	733.1768188476564	-586.3234252929689	-298.4130554199219	739.1910400390626	-586.6864013671876	-345.3176879882813	656.0816650390626	-615.5347290039064	-308.8728637695313	511.7391662597657	-638.8641357421876	-297.1470642089844	513.2347412109376	-769.090759277344	-274.7282409667969	356.2063293457032	-741.4572143554689	-304.2734985351563	270.6991271972657	-682.7167968750001	-279.0446166992188	270.8600463867188	-724.3660278320314	-302.0320434570313	231.3408355712891	-760.7733764648439	-362.3680419921876	101.7346420288086	-718.7713012695314	-354.7932128906251	130.3269805908203	-803.4632568359377	-432.9596252441407	83.90411376953126	-776.1931152343752	-208.9138946533204	55.01527023315431	-787.869567871094	-209.1154174804688	52.07973098754884	-746.4900512695314	-253.2395019531251	34.51121902465821	-699.3323974609376	
335	1.67	-238.3771209716797	1682.924438476563	-802.3887329101565	-372.8640136718751	1656.478881835938	-827.9514770507815	-397.7007446289064	1640.714599609375	-694.4906005859376	-430.7759094238282	1535.387084960938	-759.1725463867189	-480.7639160156251	1199.021606445313	-749.0563354492189	-308.5682373046876	1449.501342773438	-754.4272460937501	-335.0296325683594	1491.917602539063	-903.2415161132815	-246.3667449951172	1415.204711914063	-989.9511718750002	-207.7111053466797	1440.545654296875	-969.8816528320315	-181.5328521728516	1392.088500976563	-996.339538574219	-75.9376907348633	1375.947509765625	-996.9503173828127	-75.63201141357423	1326.021606445313	-947.2852172851565	181.2496643066407	1433.510864257813	-891.865905761719	184.2197570800782	1424.495849609375	-964.9953613281252	261.0230712890626	1452.688842773438	-886.8751220703127	-327.4472351074219	1492.8603515625	-610.2645874023439	-232.4912719726563	1398.260131835938	-509.3857727050782	-194.1833648681641	1423.000244140625	-524.5093383789064	-168.2449645996094	1374.359497070313	-500.900848388672	-75.55054473876955	1362.643920898438	-499.6341857910157	-74.88636779785158	1308.137573242188	-562.3288574218751	nan	nan	nan	186.0951080322266	1413.944458007813	-533.9899291992189	265.9837646484376	1435.682006835938	-612.5052490234376	-312.4612426757813	1053.989135742188	-881.5132446289065	-306.5811157226563	1028.498779296875	-628.0848388671876	-495.7471313476564	1088.173950195313	-746.7160644531251	-506.4656066894532	1060.703247070313	-777.0837402343752	-507.6350708007814	1054.4306640625	-721.1813964843751	-230.7812042236329	771.3364868164065	-941.7820434570315	-167.9053039550782	719.3660278320314	-919.919372558594	-137.8387756347657	739.6580200195314	-885.2315063476565	-168.7785339355469	660.2207641601564	-914.6013793945315	-142.8818511962891	605.4130859375001	-914.9934082031252	-152.0364837646485	593.0100097656251	-776.7536621093752	-5.267023086547852	454.8265075683595	-863.3531494140627	-33.61162185668946	391.7707824707032	-918.1679687500002	4.470772743225099	405.954559326172	-895.4548339843752	43.47424316406251	337.9706726074219	-862.5672607421877	49.0641441345215	204.4539031982422	-888.7397460937502	44.43670654296876	229.6990203857422	-804.7802734375002	7.328159332275392	151.8506774902344	-847.824401855469	210.4281311035157	237.4497833251954	-798.7191162109377	214.3499755859376	238.2327270507813	-837.532897949219	193.6156158447266	202.7711944580079	-891.8638305664065	-373.8494873046876	783.6450195312502	-585.8552246093751	-331.0945434570313	732.9988403320314	-586.8925781250001	-297.8916931152344	739.1205444335939	-586.8919677734376	-344.6531677246094	655.8318481445314	-615.4808349609376	-307.9220581054688	511.6768188476564	-638.8819580078126	-296.4465332031251	513.1849975585939	-769.0266723632815	-274.1290893554688	356.0874023437501	-741.4635009765626	-303.8024291992188	270.5922851562501	-682.7776489257814	-278.6509094238282	270.7250366210938	-724.4425048828126	-301.7572326660157	231.2452087402344	-760.8294067382814	-362.3206176757813	101.7824020385742	-718.7962646484376	-354.7213134765626	130.3605041503907	-803.4710693359377	-432.943572998047	83.91638183593751	-776.2108154296877	-208.9285888671876	55.01696014404298	-787.8611450195315	-209.1387176513672	52.05238342285158	-746.5305175781251	-253.2496643066407	34.53636550903321	-699.2894897460939	
336	1.675	-238.1394042968751	1682.620849609375	-802.0941162109377	-372.6669311523438	1656.179809570313	-827.6538085937502	-397.4086914062501	1640.518798828125	-694.1330566406251	-430.5014953613282	1535.16650390625	-758.9426879882814	-480.9239196777345	1198.867797851563	-748.9539184570314	-308.3167419433594	1449.267211914063	-754.2700805664064	-334.9052124023438	1491.720703125	-903.0133056640627	-246.2149353027344	1415.093505859375	-989.840515136719	-207.6181182861329	1440.462036132813	-969.7234497070315	-181.4364013671875	1391.983642578125	-996.2213134765627	-75.79139709472658	1375.791870117188	-996.8660888671877	-75.56627655029298	1325.886108398438	-947.342468261719	181.2366943359375	1433.289916992188	-891.775085449219	184.3335723876953	1424.3701171875	-964.860290527344	261.0060424804688	1452.483154296875	-886.7934570312502	-327.1256713867188	1492.505004882813	-610.1037597656251	-232.194076538086	1397.911499023438	-509.226531982422	-193.9114532470704	1422.58251953125	-524.3690795898439	-168.0260772705078	1373.919189453125	-500.8211669921876	-75.34698486328126	1362.229858398438	-499.442108154297	-74.69498443603517	1307.763305664063	-562.2235107421876	nan	nan	nan	186.3479919433594	1413.517944335938	-533.9330444335939	266.1942749023438	1435.307250976563	-612.5233154296876	-313.0316162109376	1053.791259765625	-881.629577636719	-306.8905639648438	1028.251098632813	-628.1858520507814	-495.9894409179689	1087.87548828125	-746.6332397460939	-507.0430297851564	1060.505249023438	-776.9699707031252	-508.0366821289064	1054.205688476563	-721.0955200195314	-230.735336303711	771.4492187500002	-941.7874145507815	-167.6261596679688	719.7173461914064	-920.0749511718752	-137.5940551757813	740.0267944335939	-885.370788574219	-168.2984924316407	660.5391845703126	-914.6502075195315	-142.3029479980469	605.7875976562501	-914.984069824219	-151.3357086181641	593.3352050781251	-776.8756103515627	-4.460926055908204	455.4395751953126	-863.6224365234377	-32.90761947631837	392.2266540527345	-918.3997802734377	5.23833465576172	406.5050354003907	-895.7402954101565	44.33550262451173	338.6401367187501	-862.9048461914065	50.18245315551759	205.1002655029297	-889.2038574218752	45.60107040405274	230.4190673828126	-805.0249633789065	8.553698539733888	152.4071960449219	-848.1959228515627	211.604232788086	238.2476959228516	-799.1893310546877	215.4026489257813	239.0843200683594	-837.8613891601565	194.7740020751954	203.7984008789063	-892.4091796875002	-373.5580444335938	783.3448486328127	-585.8527832031251	-330.8211669921876	733.0217895507814	-586.1702270507814	-297.9040832519532	739.1099853515626	-586.1122436523439	-343.9489440917969	655.6225585937501	-615.4149780273439	-306.9845581054688	511.567108154297	-638.8151855468751	-295.5809020996094	513.1044311523439	-768.837097167969	-273.6958923339844	355.8544311523438	-741.5076293945314	-303.4291381835938	270.5114746093751	-682.8078613281251	-278.2209472656251	270.5876464843751	-724.3953247070314	-301.5742797851563	231.1292419433594	-760.8624267578126	-362.2519836425782	101.8140335083008	-718.7738647460939	-354.7304382324219	130.376708984375	-803.468200683594	-432.9214172363282	83.9519729614258	-776.1981201171877	-208.8979492187501	54.95379638671876	-787.8853149414065	-209.1060791015626	52.07915115356447	-746.4851684570314	-253.2326354980469	34.51620101928712	-699.2958374023439	
